<mxfile host="Electron" modified="2024-06-23T13:00:11.638Z" agent="Mozilla/5.0 (Windows NT 10.0; Win64; x64) AppleWebKit/537.36 (KHTML, like Gecko) draw.io/24.6.1 Chrome/124.0.6367.207 Electron/30.0.6 Safari/537.36" etag="gzmOFb6_oJo3ekRuC-Jm" version="24.6.1" type="device">
  <diagram name="第 1 页" id="cqbvC1Dg70c4uEzQ0QUO">
    <mxGraphModel dx="1036" dy="606" grid="1" gridSize="10" guides="1" tooltips="1" connect="1" arrows="1" fold="1" page="1" pageScale="1" pageWidth="827" pageHeight="1169" math="0" shadow="0">
      <root>
        <mxCell id="0" />
        <mxCell id="1" parent="0" />
        <mxCell id="ZRe2MJ08CpcbxRee1bxh-1" value="" style="rounded=0;whiteSpace=wrap;html=1;dashed=1;dashPattern=8 8;strokeColor=#FF9933;" vertex="1" parent="1">
          <mxGeometry x="110" y="270" width="370" height="250" as="geometry" />
        </mxCell>
        <mxCell id="ZRe2MJ08CpcbxRee1bxh-3" value="" style="rounded=0;whiteSpace=wrap;html=1;dashed=1;dashPattern=8 8;strokeColor=#252bcb;fontColor=#66B2FF;" vertex="1" parent="1">
          <mxGeometry x="110" y="100" width="370" height="130" as="geometry" />
        </mxCell>
        <mxCell id="ZRe2MJ08CpcbxRee1bxh-2" value="&lt;font color=&quot;#66b2ff&quot; face=&quot;Times New Roman&quot;&gt;Problem&lt;/font&gt;" style="text;html=1;align=center;verticalAlign=middle;whiteSpace=wrap;rounded=0;" vertex="1" parent="1">
          <mxGeometry x="110" y="100" width="60" height="30" as="geometry" />
        </mxCell>
        <mxCell id="ZRe2MJ08CpcbxRee1bxh-4" value="&lt;font face=&quot;Times New Roman&quot;&gt;Model&lt;/font&gt;" style="text;html=1;align=center;verticalAlign=middle;whiteSpace=wrap;rounded=0;fontColor=#FFB366;" vertex="1" parent="1">
          <mxGeometry x="110" y="270" width="60" height="30" as="geometry" />
        </mxCell>
        <mxCell id="ZRe2MJ08CpcbxRee1bxh-6" value="" style="rounded=0;whiteSpace=wrap;html=1;dashed=1;dashPattern=8 8;strokeColor=#252bcb;fontColor=#9933FF;" vertex="1" parent="1">
          <mxGeometry x="110" y="560" width="370" height="130" as="geometry" />
        </mxCell>
        <mxCell id="ZRe2MJ08CpcbxRee1bxh-9" value="&lt;font color=&quot;#9933ff&quot; face=&quot;Times New Roman&quot;&gt;Reformulation&lt;/font&gt;" style="text;html=1;align=center;verticalAlign=middle;whiteSpace=wrap;rounded=0;fontColor=#FFB366;" vertex="1" parent="1">
          <mxGeometry x="110" y="560" width="80" height="40" as="geometry" />
        </mxCell>
      </root>
    </mxGraphModel>
  </diagram>
</mxfile>
